/* XPM */
static char *backgroung1643379416[] = {
/* columns rows colors chars-per-pixel */
"40 40 6 1 ",
"  c #6E5967",
". c #C39490",
"X c #AD707B",
"o c #B77F83",
"O c #D1B1A5",
"+ c #DCCABE",
/* pixels */
"    .......................XX.X..   ....",
"..o ......................O.OO....o ....",
"... ............................... ....",
"..X X.............................X X...",
"                                        ",
".OO...............X X...O.OO+++O.OO.....",
"................... ....................",
"................... ....................",
"..................o ....................",
"..........XX.X.     ....................",
"............O.OO... ....................",
"..................X X...................",
"                                        ",
"..X X...O.OOO+++OO................X X...",
"... ............................... ....",
"... ....................XXX..X..    ....",
"... .....................O...OO.O.o ....",
"... ............................... ....",
"... ............................... ....",
"..X X.............................X X...",
"                                        ",
"O.................X X....OOOOO..O.......",
"................... ....................",
"........X.XXXXX..   ....................",
".........O.OOO....o ....................",
"................... ....................",
"................... ....................",
"..................X X...................",
"                                        ",
"..X X...O.OOOOO.....OOO...........X X...",
"... ............................... ....",
".   .......................XX.X..   ....",
"..o ......................O.OO....o ....",
"... ............................... ....",
"... ............................... ....",
"..X X.............................X X...",
"                                        ",
".OO...............X X...O.OO+++O.OO.....",
"................... ....................",
"................... ...................."
};
