/* XPM */
static char *bomb1643379416[] = {
/* columns rows colors chars-per-pixel */
"40 40 13 1 ",
"  c #6E5967",
". c #C39490",
"X c #AD707B",
"o c #B77F83",
"O c #D1B1A5",
"+ c #DCCABE",
"@ c #3F3851",
"# c #C5DFD7",
"$ c #A7C6C6",
"% c #6D8A9D",
"& c #82A0AD",
"* c #8CA9B5",
"= c #576789",
/* pixels */
"    .......................XX.X..   ....",
"..o ......................O.OO....o ....",
"... ............................... ....",
"..X X.............................X X...",
"                                        ",
".OO...............X X...O.OO+++O.OO.....",
"................... ....................",
"................... ....................",
"..................o ....................",
"..........XX.X.     ....................",
"............O.OO... ....................",
"..................X X...................",
"                    @@                  ",
"..X X...O.OOO+++OO.@..@...........X X...",
"... ..............@@@.............. ....",
"... .............@#$%@..XXX..X..    ....",
"... ............@@@@@@@..O...OO.O.o ....",
"... ...........@&***&%=@........... ....",
"... ..........@%$#*$*&%=@.......... ....",
"..X X........@%&#$****%%@@........X X...",
"              %*******%%@               ",
"O............@%*******%%@@OOOO..O.......",
".............@%&*****&%%@@..............",
"........X.XXX@=%&***&%%=@@..............",
".........O.OO@@=%%%%%%=@@@..............",
"..............@@=%%%%=@@@...............",
"...............@@@@@@@@@................",
"................@@@@@@@.................",
"                                        ",
"..X X...O.OOOOO.....OOO...........X X...",
"... ............................... ....",
".   .......................XX.X..   ....",
"..o ......................O.OO....o ....",
"... ............................... ....",
"... ............................... ....",
"..X X.............................X X...",
"                                        ",
".OO...............X X...O.OO+++O.OO.....",
"................... ....................",
"................... ...................."
};
