/* XPM */
static char *door1643379415[] = {
/* columns rows colors chars-per-pixel */
"40 40 115 2 ",
"   c #6E5967",
".  c #6D5B6A",
"X  c #745B69",
"o  c #7B5E6B",
"O  c #77606C",
"+  c #7E626D",
"@  c #6A6473",
"#  c #6E6977",
"$  c #636D7D",
"%  c #6B6D7C",
"&  c #716674",
"*  c #776A77",
"=  c #766C79",
"-  c #786D7A",
";  c #66707F",
":  c #76717D",
">  c #7E727E",
",  c #815F6C",
"<  c #82626E",
"1  c #88646F",
"2  c #826570",
"3  c #8B6470",
"4  c #8C6B75",
"5  c #806E7A",
"6  c #926672",
"7  c #956972",
"8  c #9D6A76",
"9  c #976F78",
"0  c #9F6A78",
"q  c #81717D",
"w  c #8A737C",
"e  c #917077",
"r  c #947379",
"t  c #9B737A",
"y  c #9D7A7E",
"u  c #A26E76",
"i  c #A56D79",
"p  c #A96F7A",
"a  c #A3747B",
"s  c #AD707B",
"d  c #A17C7E",
"f  c #A8797F",
"g  c #B1777E",
"h  c #B1797D",
"j  c #C2767E",
"k  c #677181",
"l  c #6C7583",
"z  c #717886",
"x  c #747E8A",
"c  c #787E8A",
"v  c #827680",
"b  c #847881",
"n  c #897981",
"m  c #907981",
"M  c #9F7A80",
"N  c #A67D81",
"B  c #A97E82",
"V  c #B67E82",
"C  c #7F848E",
"Z  c #6F8795",
"A  c #758390",
"S  c #798591",
"D  c #748894",
"F  c #7E8892",
"G  c #9F8085",
"H  c #A78082",
"J  c #AC8483",
"K  c #AE8A86",
"L  c #A88D8A",
"P  c #B08787",
"I  c #B98487",
"U  c #B28987",
"Y  c #B28B88",
"T  c #BA8C8A",
"R  c #AE918D",
"E  c #B0928C",
"W  c #BF968E",
"Q  c #AF9690",
"!  c #AF9994",
"~  c #B09792",
"^  c #B89A93",
"/  c #C18785",
"(  c #CC8083",
")  c #C28A87",
"_  c #C08F8D",
"`  c #CE8E8A",
"'  c #D18485",
"]  c #C2938F",
"[  c #D0938C",
"{  c #C39490",
"}  c #C69C95",
"|  c #C89B90",
" . c #E28C8B",
".. c #E89A93",
"X. c #D5A597",
"o. c #D8A999",
"O. c #DEB29F",
"+. c #ECA397",
"@. c #EDA599",
"#. c #EEAA9B",
"$. c #F0AD9D",
"%. c #F1B19F",
"&. c #D1B1A5",
"*. c #DAB2A1",
"=. c #DAB9A8",
"-. c #F2B3A1",
";. c #F7BFA8",
":. c #E8C1AD",
">. c #F7C0A8",
",. c #F9C5AB",
"<. c #FBCAAE",
"1. c #FACDB2",
"2. c #FBD1B5",
"3. c #FBD5B9",
"4. c #FAD9BD",
/* pixels */
"        { { { ] U U N r P K E E ! E t t U Y E E ! ~ K r y U a ] ]       ] ] { { ",
"{ { V   { ] T H W O.X.| ,.1.1.1.3.1.| | ,.<.2.2.3.3.,.| o.O.W H U | I   ] ] { { ",
"{ { {   W T } =.1.<.o.| ,.<.<.<.<.<.} | ,.<.<.<.1.<.,.| o.<.1.=.} T ]   ] { T Y ",
"{ { s   i } :.2.,.%.[ / #.$.$.$.%.$.) ) #.$.$.$.$.$.#./ [ %.,.1.:.} p   s | { ] ",
"        + *.2.<.@. .j 6 7 7 7 7 7 7 1 1 7 7 7 7 7 7 7 7 j  .#.1.1.O.+ .   . . . ",
"{ &.&.U T ,.<.#.( 3 X 1 p s p p p u o $ @ o p p s p p 2   3 ( $.<.,.Y Y ] ] ] { ",
"{ { { J X.<.,...u X o 3 u u u 0 u 0 o $ @ o 6 7 7 8 7 3 X   u ..>.<.X.K ] | { { ",
"{ { ] K <.<.%.( X 2 0 i a i a a a 6 X $ @ X + 2 2 2 < < o o X ' %.<.,.Y ] ] { { ",
"{ { { J >.>.+.7 , p h T { { { { W V o z # 1 T { { { { { T p < 6 +.>.>.J ] ] { { ",
"{ { ] 4 J J f < X o 1 7 r r r r r 6 o l # < e r r 9 r r 4 o X , f J J 4 { ] { { ",
"{ { { d o.o.[ 1 @ & 4 H U K U U P P r l * N P P P P P N 4 # @ 3 [ o.o.d { { { { ",
"{ ] ] ! 3.<.$.7 Z D > U { { { ] { { B l q { { { { { { P - D D 7 $.<.3.! { { { { ",
". .   E 3.<.$.7 > n N T ] { ] ] { { N x w _ ] { { { { T N n v 7 $.<.3.E         ",
"] ] s E 2.<.$.7 t H N N N N H N N H 3 F c 0 B N H H H B N H 0 7 $.<.2.E s { { { ",
"] ] { E 1.<.$.7 o o o o o o o o o o X S v N P K P P P P J U N 7 $.<.2.R { { { { ",
"| ] { E <.<.$.7 6 u 8 u 0 0 u 0 0 0 3 c b _ { { { { { { { { _ 7 $.<.<.K { { { { ",
"{ { { J ;.;.+.7 i s s s s p B p s s 3 x v I { { { { { { { { I 7 +.>.>.J { { { { ",
"{ { { X                               z &                             X { { { { ",
"{ { { K ,.,.#.7 I { { { ] { { { ] _ t $ * I { { { { { { { { I 7 #.,.,.K { { { { ",
"{ { s R 2.,.$.7 _ { { { { { { { ] P m # z M T W { { { { { { _ 7 #.<.2.R s { { { ",
"        2.<.$.7 0 M M M M M t M a < S = c F 9 t M y M M M y 9 7 $.<.2.L         ",
"&.{ { ^ 2.<.$.7 X O O X o o X O X X S : x F 4 t y y y M y y 7 7 $.<.2.^ { { { { ",
"{ { { R 1.<.#.7 o i s s s s s B i o S : x Z L W W { { { { { { 7 $.<.<.E { { { { ",
"{ { { K ,.1.#.7 + i i i i i i i i < S : x G N T T T T T T T Y 7 #.<.<.K { { { { ",
"{ { { d o.o.[ 1 2 3 4 4 7 4 4 e 3 X F : c F o + + 2 + 2 2 2 + 3 [ o.X.d ] ] { { ",
"{ { ] r | | / 1 B P P P P U P P P 2 A : x F o 1 3 3 3 3 3 2 X 3 / | | r ] ] { { ",
"{ { { K ,.,.$.7 { { { { { { { { { 4 A - x F 8 p s s s p p p + 6 #.,.,.U | ] ] { ",
"{ { { ! 3.<.$.7 N H H H B H H H N + A z x F 3 6 7 8 7 8 8 6 o 7 %.<.3.~ ] ] ] | ",
"X .   Q 2.<.$.7 2 4 4 4 4 4 4 4 4 X A - z F 2 4 5 4 4 4 4 4 4 7 $.<.3.~         ",
"] ] s E 2.<.$.7 5 m B T W { { { { N 5 k # m I { { { { T N m n 7 $.<.2.E s { { { ",
"] ] ] R 1.<.$.7 x x w Y { { { { { ] t $ * P { { { { { U w c x 7 $.<.<.E { { { { ",
"] . X Y <.<.$.7 @ # r T { { { { { { a z b { { { { { { T r # @ 6 $.<.<.E { { { { ",
"] ] I y o.o.[ 3 o , 1 1 7 4 6 4 4 4 o l - 4 r r r r r w 4 2 < 6 [ o.o.d { { { { ",
"] | ] t o.X.` 3 i i i i i p i p i i o l : T W T T T T T T T Y 1 ` X.X.t { { { { ",
"] ] ] K ,.,.@.7 u s s s s s s s s i X k > { { { { { { { ] ] ] 7 #.<.,.K { { { { ",
"| ] s ! 4.<.$.7                       l * 0 H H H H H H H H u 7 #.<.3.! s { { { ",
"      E 1.,.$.6 r y M y y y y y y y 4 $ @ X o o o o + o o o X 7 #.<.1.E         ",
"{ &.&.J -.-...6 T { { { { { { { { { d $ @ o 0 u 0 u 0 0 8 8 o 6 ..%.%.J ] ] { { ",
"{ { { 1 h h s o 9 y y y y y M y M M 2 @ . X 3 6 6 6 6 6 6 1 o o s h h 3 ] { { { ",
"{ { { X o o o X o O O O O O O O O X X . .   X X X X X X X X X X o O o X ] { { { "
};
