/* XPM */
static char *player1643379416[] = {
/* columns rows colors chars-per-pixel */
"40 40 26 1 ",
"  c #6E5967",
". c #C39490",
"X c #AD707B",
"o c #B77F83",
"O c #D1B1A5",
"+ c #DCCABE",
"@ c #3F3851",
"# c #E44B3B",
"$ c #EF895A",
"% c #F6C27D",
"& c #FFEFA9",
"* c #5F7D93",
"= c #768EA1",
"- c #A5C2C7",
"; c #F2F7F6",
": c #B9355C",
"> c #DA4949",
", c #DEB19C",
"< c #E36254",
"1 c #F07860",
"2 c #ECD4BE",
"3 c #F69972",
"4 c #8CA9B5",
"5 c #CD8674",
"6 c #298A91",
"7 c #25667E",
/* pixels */
"    .......................XX.X..   ....",
"..o ......................O.OO....o ....",
"... ............................... ....",
"..X X.............................X X...",
"                                        ",
".OO...............X X...O.OO+++O.OO.....",
"................... ....................",
"...............@@@@ .@@@@@@@@.@@........",
"..............@#$%$@@$%%%&%%&@&%@.......",
"..........XX.X@$$%%@@%%%@@@%&@&&@.......",
"............O.@$$%%$%%%%$@$%&%&&@.......",
"..............@#$%%$%%%%%%%%&%&%@.......",
"              @@@@@@@@@@@@@@@@@@@       ",
"..X X...O.OOO@*=@*==-@----@;;-@;;@X X...",
"... .........@@@@@@@@@@@@@@@@@@@@@. ....",
"... .........@@:>>>>>,,,,,,,,,>>@@  ....",
"... ..........@>><1<,@@22222@@,<@.o ....",
"... ..........@:>111222211111221@.. ....",
"... ..........@@><>111111@@@1111@.. ....",
"..@@@@@@@@@..@@@@>>1111313333111@.X X...",
" @;-;;;-;-4@@2,5@:@<>1111111111<@@      ",
"O@-4444444=@@22,@@@>>11<>111<><>@2@.....",
".@-4-444-4=@@22,5@@:@>>>>>>>>@>>@2@.....",
".@-4=444=4=@@2@@55@@@:>>@:>>:@:@@,@@@...",
".@-4444444=@@@@@@@@@@@@@@@@@@@@@@@@-;@..",
".@-4444444=@@@**444---;-;;;--444*@@4-@..",
".@-4444444=@@@@@@@@@@@@@@@@@@@@@@@@*4@..",
".@-4444444=@...@@@@@@@@@@@@@@@@@@..@@...",
" @-4-444-4=@   @67@@@@@@@@@@@@76@       ",
".@-4=444=4=@OOO@7@..OOO.......@7@.X X...",
".@4=======*@...@@.............@@... ....",
". @@@@@@@@@................XX.X..   ....",
"..o ......................O.OO....o ....",
"... ............................... ....",
"... ............................... ....",
"..X X.............................X X...",
"                                        ",
".OO...............X X...O.OO+++O.OO.....",
"................... ....................",
"................... ...................."
};
