/* XPM */
static char *_1162eb99167439ba1184c523cb46453Y523SbJdufyUYwjD[] = {
/* columns rows colors chars-per-pixel */
"64 64 150 2 ",
"   c #3F3851",
".  c #4F3753",
"X  c #443952",
"o  c #4B3A52",
"O  c #543754",
"+  c #5B3755",
"@  c #513A52",
"#  c #5B3C51",
"$  c #7E3E4F",
"%  c #603756",
"&  c #613E51",
"*  c #6D3D52",
"=  c #6C3758",
"-  c #723D51",
";  c #793956",
":  c #753659",
">  c #7D365A",
",  c #7A3858",
"<  c #564255",
"1  c #5B4556",
"2  c #5B4A58",
"3  c #654253",
"4  c #6C4453",
"5  c #6F4C57",
"6  c #624D5A",
"7  c #6C4C59",
"8  c #724453",
"9  c #7C4653",
"0  c #734A56",
"q  c #7D4A55",
"w  c #734E59",
"e  c #7F5057",
"r  c #74525B",
"t  c #73585F",
"y  c #745D62",
"u  c #6D6269",
"i  c #766366",
"p  c #766669",
"a  c #78676A",
"s  c #766B6E",
"d  c #786A6D",
"f  c #766D74",
"g  c #796E71",
"h  c #767077",
"j  c #797279",
"k  c #843B54",
"l  c #8D3B56",
"z  c #85375A",
"x  c #893959",
"c  c #933D54",
"v  c #8B404F",
"b  c #93414F",
"n  c #99424F",
"m  c #8C4050",
"M  c #814953",
"N  c #8B4F57",
"B  c #934C54",
"V  c #82545C",
"C  c #88565A",
"Z  c #9A5458",
"A  c #915C5F",
"S  c #9A5E5C",
"D  c #A7434E",
"F  c #AE444E",
"G  c #B0474F",
"H  c #A44750",
"J  c #A04D53",
"K  c #AA4850",
"L  c #B14950",
"P  c #A25254",
"I  c #AD5154",
"U  c #A45458",
"Y  c #AF5759",
"T  c #AB595A",
"R  c #B45454",
"E  c #B95656",
"W  c #BB5856",
"Q  c #B65A5A",
"!  c #BE5C59",
"~  c #AB655F",
"^  c #B0645E",
"/  c #AB6764",
"(  c #B36A63",
")  c #BD6C61",
"_  c #C15C56",
"`  c #C25F58",
"'  c #CA5E5B",
"]  c #C3635B",
"[  c #C9625D",
"{  c #C96B5E",
"}  c #DA695F",
"|  c #C16E61",
" . c #CA6F61",
".. c #DB6C61",
"X. c #C67066",
"o. c #CD7363",
"O. c #C87368",
"+. c #D27568",
"@. c #DF7769",
"#. c #D3786A",
"$. c #E27F6D",
"%. c #B98271",
"&. c #BC8A76",
"*. c #BF927B",
"=. c #E3826F",
"-. c #E48571",
";. c #E68D74",
":. c #E79076",
">. c #E89177",
",. c #E99579",
"<. c #EB9C7C",
"1. c #EDA17E",
"2. c #C39D81",
"3. c #D1A585",
"4. c #D5B895",
"5. c #EFA582",
"6. c #EFA883",
"7. c #F1AC85",
"8. c #F2B087",
"9. c #F3B289",
"0. c #F6BB8E",
"q. c #F7BE90",
"w. c #F8BF91",
"e. c #F7C091",
"r. c #F9C393",
"t. c #FBCA97",
"y. c #FBCB98",
"u. c #FBCC99",
"i. c #FBCD9A",
"p. c #FBCE9B",
"a. c #FCCE9B",
"s. c #FBCF9D",
"d. c #FCCF9C",
"f. c #FCCF9D",
"g. c #FBCC99",
"h. c #FCD09E",
"j. c #FCD19E",
"k. c #D6CFB7",
"l. c #FCD1A0",
"z. c #FCD4A1",
"x. c #FCD5A2",
"c. c #FDDAA7",
"v. c #FEDFAC",
"b. c #FEE1AE",
"n. c #FEE3B2",
"m. c #FEE7BD",
"M. c #FEE7B8",
"N. c #FEE9BD",
"B. c white",
"V. c white",
/* pixels */
"2 i f s p 6 6 y i h f y f d a i t < 5 y h i p i 5 < t u s h s s y 6 6 a s s i 2 B.B.B.B.B.B.B.B.B.B.B.B.B.B.B.B.B.B.B.B.B.B.B.B.",
"i t.f.u.y.2.+.r.t.h.g.t.f.f.y.t.r.A -.t.j.t.t.t.,.7 0.t.j.j.j.t.r.#.*.y.h.h.t.i B.B.B.B.B.B.B.B.B.B.B.B.B.B.B.B.B.B.B.B.B.B.B.B.",
"i y.t.t.y.2.#.w.t.t.t.t.t.y.y.y.0.A =.r.t.t.t.t.:.5 8.t.t.t.t.t.r.#.*.y.t.t.t.i B.B.B.B.B.B.B.B.B.B.B.B.B.B.B.B.B.B.B.B.B.B.B.B.",
"y r.t.t.y.%.#.>.t.t.t.t.t.t.r.q.=.A =.,.t.t.t.<.=.5 =.9.t.t.t.t.:.#.&.y.t.t.t.t B.B.B.B.B.B.B.B.B.B.B.B.B.B.B.B.B.B.B.B.B.B.B.B.",
"w ;.5.5.;./  .@.$.$.$.$.$.$.$.$.=.N } $.$.$.$.=...4 =.$.$.=.@.=.@. .( >.<.1.;.w B.B.B.B.B.B.B.B.B.B.B.B.B.B.B.B.B.B.B.B.B.B.B.B.",
"& | O.O.O.b           X                       X                     B O.O.O.| 3 B.B.B.B.B.B.B.B.B.B.B.B.B.B.B.B.B.B.B.B.B.B.B.B.",
"6 ) ( ) Y           @ k b b , . k b b ; . k b v ; . k b l ;           Y ) ( ( 6 B.B.B.B.B.B.B.B.B.B.B.B.B.B.B.B.B.B.B.B.B.B.B.B.",
"y r.q.;.$.X = l k ; @ v k v k @ v v v k @ k v v k @ v v v k @ v l = X $.-.0.t.y B.B.B.B.B.B.B.B.B.B.B.B.B.B.B.B.B.B.B.B.B.B.B.B.",
"i t.t.e.$.  X + ^  .^ X.8 D ^ | H - ^ X.) ) * H ^ { D 8 | | ^ R %     $.w.t.i.d B.B.B.B.B.B.B.B.B.B.B.B.B.B.B.B.B.B.B.B.B.B.B.B.",
"d u.t.e.$.    * o.o.o.o.q ] o.o.] q o.o.o.o.9 ^ o.o.^ q o.o.o.{ = X   $.r.t.i.a B.B.B.B.B.B.B.B.B.B.B.B.B.B.B.B.B.B.B.B.B.B.B.B.",
"j j.t.e.$.  X X X X X X   < X X X X X X X   X < o X X X X X   X X X   $.e.i.i.g B.B.B.B.B.B.B.B.B.B.B.B.B.B.B.B.B.B.B.B.B.B.B.B.",
"g h.t.e.$.  c F { { 3 o.o.o.o.Z Q o.o.{ 4 o.o.o.{ 4 o.o.o.{ 4 [ F c   $.r.t.i.g B.B.B.B.B.B.B.B.B.B.B.B.B.B.B.B.B.B.B.B.B.B.B.B.",
"i t.t.0.$.  : n I Z # ^ ~ ^ ( 9 v ^ ( J # ( ^ ^ Z # ~ ^ ^ P # P n :   $.0.t.t.i B.B.B.B.B.B.B.B.B.B.B.B.B.B.B.B.B.B.B.B.B.B.B.B.",
"y t.0.-.=.X   + P ~ ~ P # X k b >   , b b b #       X + P ~ ~ Z +     $.-.0.t.y B.B.B.B.B.B.B.B.B.B.B.B.B.B.B.B.B.B.B.B.B.B.B.B.",
"3 / / / P X   - {  .o.{ -   X X       X               - { o.o.{ *     U / / / 1 B.B.B.B.B.B.B.B.B.B.B.B.B.B.B.B.B.B.B.B.B.B.B.B.",
"7 #.#.#.]     X o o o X X     ' #.+.+.4 3 ^ | | K     X X < o o X     ' #.#.#.5 B.B.B.B.B.B.B.B.B.B.B.B.B.B.B.B.B.B.B.B.B.B.B.B.",
"i t.e.;.=.  c F { ] 3 ] F c   $.$.,.5.t t 5.<.$.$.X c F F ] 3 ] F c   $.;.e.t.y B.B.B.B.B.B.B.B.B.B.B.B.B.B.B.B.B.B.B.B.B.B.B.B.",
"i t.y.r.$.  > D E R # R D >   $.1.t.y.i i t.t.1.$.  > D K I # R D >   $.r.t.i.g B.B.B.B.B.B.B.B.B.B.B.B.B.B.B.B.B.B.B.B.B.B.B.B.",
"a u.t.r.$.    O S S S B O     $.r.t.t.i i t.t.e.$.    + B S S B O X   $.r.t.j.j B.B.B.B.B.B.B.B.B.B.B.B.B.B.B.B.B.B.B.B.B.B.B.B.",
"s u.y.e.$.  X - o.o.o.{ - X   Q 3.4.k.u p k.4.3.Q     -  .o.o. .-   X =.r.t.i.d B.B.B.B.B.B.B.B.B.B.B.B.B.B.B.B.B.B.B.B.B.B.B.B.",
"a y.y.r.$.    X 1 1 3 < X             X               X 1 1 1 # X     $.r.t.i.d B.B.B.B.B.B.B.B.B.B.B.B.B.B.B.B.B.B.B.B.B.B.B.B.",
"f y.y.w.$.  l F ] ! 3 G F l   ..e.z.m.d s m.z.e.}   l F ] _ 3 ] F l   $.r.t.i.a B.B.B.B.B.B.B.B.B.B.B.B.B.B.B.B.B.B.B.B.B.B.B.B.",
"j s.y.r.$.  z F _ E 3 G F z   =.r.t.t.i i y.t.e.$.  k G _ R & W F z   $.e.t.i.d B.B.B.B.B.B.B.B.B.B.B.B.B.B.B.B.B.B.B.B.B.B.B.B.",
"a y.y.8.$.    O M C C M @     =.:.e.i.i i u.e.;.$.  X @ M N C M O     $.9.i.t.i B.B.B.B.B.B.B.B.B.B.B.B.B.B.B.B.B.B.B.B.B.B.B.B.",
"t e.9.$.@.    - o.o.o.o.- X   @.=.$.$.0 5 $.$.$.$.    -  .o.o.o.-     $.$.8.w.y B.B.B.B.B.B.B.B.B.B.B.B.B.B.B.B.B.B.B.B.B.B.B.B.",
"@ r w r 8     o 4 5 5 4 o     8 r w r o @ r r w 8 X   o 4 0 5 4 o     8 w w w @ B.B.B.B.B.B.B.B.B.B.B.B.B.B.B.B.B.B.B.B.B.B.B.B.",
"w ;.;.$.}   x F ` !                 X         X     x F _ W & _ F x   ..$.;.>.w B.B.B.B.B.B.B.B.B.B.B.B.B.B.B.B.B.B.B.B.B.B.B.B.",
"i t.t.<.$.X z F ` E             : n n k @ b n n n = x F ] W & _ F x   $.,.t.t.i B.B.B.B.B.B.B.B.B.B.B.B.B.B.B.B.B.B.B.B.B.B.B.B.",
"a t.t.r.$.    . X 0 w w 0 X 0 w w @ 4 w w w 4 X 8 w w @ - w r 8 o     $.r.t.t.a B.B.B.B.B.B.B.B.B.B.B.B.B.B.B.B.B.B.B.B.B.B.B.B.",
"j f.t.r.$.    - o o.o.o.o.o o.o.o.C { o.o.o.o.o o.o.o.C o.o.o.{ -     $.r.t.h.j B.B.B.B.B.B.B.B.B.B.B.B.B.B.B.B.B.B.B.B.B.B.B.B.",
"a t.t.r.$.    O X e V V 9 X e e V # 8 V C C 9 X q V e @ 8 V V 9 O     $.r.r.t.a B.B.B.B.B.B.B.B.B.B.B.B.B.B.B.B.B.B.B.B.B.B.B.B.",
"g i.t.r.$.  z F ] E & { o.o.E 3 { o.o.E & { o.o.E 3 o.o. .W & _ F z X $.r.y.f.g B.B.B.B.B.B.B.B.B.B.B.B.B.B.B.B.B.B.B.B.B.B.B.B.",
"a u.y.6.$.  x F ] ! & o.o.o.! &  .o.o.! 3  .o.o.! &  .o.o.! & ] F l   $.6.y.y.i B.B.B.B.B.B.B.B.B.B.B.B.B.B.B.B.B.B.B.B.B.B.B.B.",
"t 9.6.=.@.  X o # # # + o         o # # # # o         o # # # # o     @.$.6.8.y B.B.B.B.B.B.B.B.B.B.B.B.B.B.B.B.B.B.B.B.B.B.B.B.",
"X 1 < < #     X @ @ @ @ X         X @ @ @ @ X X     X X @ @ . @ X     # 1 < < o B.B.B.B.B.B.B.B.B.B.B.B.B.B.B.B.B.B.B.B.B.B.B.B.",
"4 $.=.-.@.T 8 V V V V V V V @ q V V V V V 9 # V V V V V V V V V V 8 T $.$.$.$.4 B.B.B.B.B.B.B.B.B.B.B.B.B.B.B.B.B.B.B.B.B.B.B.B.",
"w <.t.t.7.( #.=.$.$.$.$.$.$.5 $.$.$.$.$.$.$.A =.-.$.$.$.=.@.=.=.=.#.( 7.y.r.<.w B.B.B.B.B.B.B.B.B.B.B.B.B.B.B.B.B.B.B.B.B.B.B.B.",
"y y.t.t.t.*.#.5.t.t.t.t.r.>.w -.9.g.t.t.7.=.A ,.r.y.t.y.t.t.u.t.5.#.*.t.y.y.r.i B.B.B.B.B.B.B.B.B.B.B.B.B.B.B.B.B.B.B.B.B.B.B.B.",
"i u.t.t.t.2.#.t.t.t.t.t.t.w.w ,.t.t.t.t.y.-.A y.y.r.t.y.t.t.t.t.y.+.2.y.t.y.y.a B.B.B.B.B.B.B.B.B.B.B.B.B.B.B.B.B.B.B.B.B.B.B.B.",
"y r.M.b.j.&.#.0.i.l.n.n.y.6.5 ;.t.x.f.m.w.-.A 8.y.c.v.M.u.b.N.u.0.#.&.j.b.M.r.y B.B.B.B.B.B.B.B.B.B.B.B.B.B.B.B.B.B.B.B.B.B.B.B.",
"B.B.B.B.B.B.B.B.B.B.B.B.B.B.B.B.B.B.B.B.B.B.B.B.B.B.B.B.B.B.B.B.B.B.B.B.B.B.B.B.B.B.B.B.B.B.B.B.B.B.B.B.B.B.B.B.B.B.B.B.B.B.B.B.",
"B.B.B.B.B.B.B.B.B.B.B.B.B.B.B.B.B.B.B.B.B.B.B.B.B.B.B.B.B.B.B.B.B.B.B.B.B.B.B.B.B.B.B.B.B.B.B.B.B.B.B.B.B.B.B.B.B.B.B.B.B.B.B.B.",
"B.B.B.B.B.B.B.B.B.B.B.B.B.B.B.B.B.B.B.B.B.B.B.B.B.B.B.B.B.B.B.B.B.B.B.B.B.B.B.B.B.B.B.B.B.B.B.B.B.B.B.B.B.B.B.B.B.B.B.B.B.B.B.B.",
"B.B.B.B.B.B.B.B.B.B.B.B.B.B.B.B.B.B.B.B.B.B.B.B.B.B.B.B.B.B.B.B.B.B.B.B.B.B.B.B.B.B.B.B.B.B.B.B.B.B.B.B.B.B.B.B.B.B.B.B.B.B.B.B.",
"B.B.B.B.B.B.B.B.B.B.B.B.B.B.B.B.B.B.B.B.B.B.B.B.B.B.B.B.B.B.B.B.B.B.B.B.B.B.B.B.B.B.B.B.B.B.B.B.B.B.B.B.B.B.B.B.B.B.B.B.B.B.B.B.",
"B.B.B.B.B.B.B.B.B.B.B.B.B.B.B.B.B.B.B.B.B.B.B.B.B.B.B.B.B.B.B.B.B.B.B.B.B.B.B.B.B.B.B.B.B.B.B.B.B.B.B.B.B.B.B.B.B.B.B.B.B.B.B.B.",
"B.B.B.B.B.B.B.B.B.B.B.B.B.B.B.B.B.B.B.B.B.B.B.B.B.B.B.B.B.B.B.B.B.B.B.B.B.B.B.B.B.B.B.B.B.B.B.B.B.B.B.B.B.B.B.B.B.B.B.B.B.B.B.B.",
"B.B.B.B.B.B.B.B.B.B.B.B.B.B.B.B.B.B.B.B.B.B.B.B.B.B.B.B.B.B.B.B.B.B.B.B.B.B.B.B.B.B.B.B.B.B.B.B.B.B.B.B.B.B.B.B.B.B.B.B.B.B.B.B.",
"B.B.B.B.B.B.B.B.B.B.B.B.B.B.B.B.B.B.B.B.B.B.B.B.B.B.B.B.B.B.B.B.B.B.B.B.B.B.B.B.B.B.B.B.B.B.B.B.B.B.B.B.B.B.B.B.B.B.B.B.B.B.B.B.",
"B.B.B.B.B.B.B.B.B.B.B.B.B.B.B.B.B.B.B.B.B.B.B.B.B.B.B.B.B.B.B.B.B.B.B.B.B.B.B.B.B.B.B.B.B.B.B.B.B.B.B.B.B.B.B.B.B.B.B.B.B.B.B.B.",
"B.B.B.B.B.B.B.B.B.B.B.B.B.B.B.B.B.B.B.B.B.B.B.B.B.B.B.B.B.B.B.B.B.B.B.B.B.B.B.B.B.B.B.B.B.B.B.B.B.B.B.B.B.B.B.B.B.B.B.B.B.B.B.B.",
"B.B.B.B.B.B.B.B.B.B.B.B.B.B.B.B.B.B.B.B.B.B.B.B.B.B.B.B.B.B.B.B.B.B.B.B.B.B.B.B.B.B.B.B.B.B.B.B.B.B.B.B.B.B.B.B.B.B.B.B.B.B.B.B.",
"B.B.B.B.B.B.B.B.B.B.B.B.B.B.B.B.B.B.B.B.B.B.B.B.B.B.B.B.B.B.B.B.B.B.B.B.B.B.B.B.B.B.B.B.B.B.B.B.B.B.B.B.B.B.B.B.B.B.B.B.B.B.B.B.",
"B.B.B.B.B.B.B.B.B.B.B.B.B.B.B.B.B.B.B.B.B.B.B.B.B.B.B.B.B.B.B.B.B.B.B.B.B.B.B.B.B.B.B.B.B.B.B.B.B.B.B.B.B.B.B.B.B.B.B.B.B.B.B.B.",
"B.B.B.B.B.B.B.B.B.B.B.B.B.B.B.B.B.B.B.B.B.B.B.B.B.B.B.B.B.B.B.B.B.B.B.B.B.B.B.B.B.B.B.B.B.B.B.B.B.B.B.B.B.B.B.B.B.B.B.B.B.B.B.B.",
"B.B.B.B.B.B.B.B.B.B.B.B.B.B.B.B.B.B.B.B.B.B.B.B.B.B.B.B.B.B.B.B.B.B.B.B.B.B.B.B.B.B.B.B.B.B.B.B.B.B.B.B.B.B.B.B.B.B.B.B.B.B.B.B.",
"B.B.B.B.B.B.B.B.B.B.B.B.B.B.B.B.B.B.B.B.B.B.B.B.B.B.B.B.B.B.B.B.B.B.B.B.B.B.B.B.B.B.B.B.B.B.B.B.B.B.B.B.B.B.B.B.B.B.B.B.B.B.B.B.",
"B.B.B.B.B.B.B.B.B.B.B.B.B.B.B.B.B.B.B.B.B.B.B.B.B.B.B.B.B.B.B.B.B.B.B.B.B.B.B.B.B.B.B.B.B.B.B.B.B.B.B.B.B.B.B.B.B.B.B.B.B.B.B.B.",
"B.B.B.B.B.B.B.B.B.B.B.B.B.B.B.B.B.B.B.B.B.B.B.B.B.B.B.B.B.B.B.B.B.B.B.B.B.B.B.B.B.B.B.B.B.B.B.B.B.B.B.B.B.B.B.B.B.B.B.B.B.B.B.B.",
"B.B.B.B.B.B.B.B.B.B.B.B.B.B.B.B.B.B.B.B.B.B.B.B.B.B.B.B.B.B.B.B.B.B.B.B.B.B.B.B.B.B.B.B.B.B.B.B.B.B.B.B.B.B.B.B.B.B.B.B.B.B.B.B.",
"B.B.B.B.B.B.B.B.B.B.B.B.B.B.B.B.B.B.B.B.B.B.B.B.B.B.B.B.B.B.B.B.B.B.B.B.B.B.B.B.B.B.B.B.B.B.B.B.B.B.B.B.B.B.B.B.B.B.B.B.B.B.B.B.",
"B.B.B.B.B.B.B.B.B.B.B.B.B.B.B.B.B.B.B.B.B.B.B.B.B.B.B.B.B.B.B.B.B.B.B.B.B.B.B.B.B.B.B.B.B.B.B.B.B.B.B.B.B.B.B.B.B.B.B.B.B.B.B.B.",
"B.B.B.B.B.B.B.B.B.B.B.B.B.B.B.B.B.B.B.B.B.B.B.B.B.B.B.B.B.B.B.B.B.B.B.B.B.B.B.B.B.B.B.B.B.B.B.B.B.B.B.B.B.B.B.B.B.B.B.B.B.B.B.B.",
"B.B.B.B.B.B.B.B.B.B.B.B.B.B.B.B.B.B.B.B.B.B.B.B.B.B.B.B.B.B.B.B.B.B.B.B.B.B.B.B.B.B.B.B.B.B.B.B.B.B.B.B.B.B.B.B.B.B.B.B.B.B.B.B."
};
